# xmcd
#
# Track frame offsets:
#  150
#  13800
#  31467
#  49543
#
# Disc length: 922 seconds
#
# Revision: 0
# Processed by: cddbd v1.4PL0 Copyright (c) Steve Scherf et al.
# Submitted via: AltoMP3_Maker 3.0
#
DISCID=29039804
DTITLE=Time 2 Act - Time 2 Act
DYEAR=1900
DGENRE=
TTITLE0=Someday
TTITLE1=Looking in His Eyes
TTITLE2=Super King
TTITLE3=Shake Down
EXTD=
EXTT0=
EXTT1=
EXTT2=
EXTT3=
PLAYORDER=
